# xmcd
#
# Track frame offsets:
#	150
#	16833
#	29580
#	47153
#	63693
#	77833
#	97543
#	115204
#	137234
#	158145
#	175367
#	190297
#
# Disc length: 2740 seconds
#
# Revision: 0
# Processed by: cddbd v1.5.2PL0 Copyright (c) Steve Scherf et al.
# Submitted via: EasyCDDAExtractor 4.6.9.1
#
DISCID=9d0ab20c
DTITLE=Derek McCorkell - Country Collection Vol 3
DYEAR=1900
DGENRE=
TTITLE0=Just_Another_Sleepless_Night
TTITLE1=Sometimes_Shes_Just_A_Pain_In_The_Ass
TTITLE2=Cause_Love_Hurts
TTITLE3=Dont_Know_What_It_Is_About_A_Sad_Song
TTITLE4=Shes_Gonna_Be_Free
TTITLE5=These_Loving_Arms_Of_Mine
TTITLE6=I_Fall_In_Love_Again
TTITLE7=Wa-Over_My_Heart
TTITLE8=Houston_Weve_A_Problem
TTITLE9=When_Love_Slips_Away
TTITLE10=Dear_Dixie
TTITLE11=Its_The_Children_That_Die
EXTD=
EXTT0=
EXTT1=
EXTT2=
EXTT3=
EXTT4=
EXTT5=
EXTT6=
EXTT7=
EXTT8=
EXTT9=
EXTT10=
EXTT11=
PLAYORDER=
